<svg width="144" height="144" viewBox="0 0 144 144" fill="none" xmlns="http://www.w3.org/2000/svg">
<path d="M93.6404 138.81C93.9421 139.741 93.4321 140.743 92.4935 141.022C82.4704 143.998 71.912 144.757 61.553 143.238C51.1941 141.719 41.2983 137.96 32.5517 132.231C31.7326 131.695 31.5318 130.589 32.0882 129.783C32.6447 128.978 33.7476 128.778 34.5674 129.313C42.8653 134.733 52.2475 138.29 62.0675 139.73C71.8875 141.17 81.896 140.457 91.4006 137.648C92.3395 137.37 93.3387 137.878 93.6404 138.81Z" fill="url(#paint0_linear)"/>
<path d="M72 1.77282C72 0.79372 72.794 -0.00227972 73.7728 0.0218077C91.041 0.44676 107.605 7.06887 120.418 18.7113C133.67 30.7515 141.96 47.2972 143.671 65.1197C145.381 82.9423 140.391 100.763 129.672 115.104C119.307 128.972 104.306 138.624 87.4338 142.326C86.4775 142.536 85.5466 141.906 85.3603 140.945C85.174 139.983 85.803 139.055 86.7591 138.844C102.765 135.311 116.995 126.143 126.832 112.982C137.023 99.3465 141.768 82.4034 140.141 65.4585C138.514 48.5137 130.633 32.7828 118.034 21.3355C105.873 10.286 90.1591 3.99275 73.7728 3.56859C72.7941 3.54325 72 2.75193 72 1.77282Z" fill="#00BA88"/>
<path d="M72 134C106.242 134 134 106.242 134 72C134 37.7583 106.242 10 72 10C37.7583 10 10 37.7583 10 72C10 106.242 37.7583 134 72 134Z" fill="#AFC7FF"/>
<path d="M82.9392 44.7483C78.3236 44.7483 74.5664 40.9911 74.5664 36.3742C74.5664 31.7572 78.3236 28 82.9392 28C87.5575 28 91.312 31.7572 91.312 36.3742C91.312 40.9911 87.5575 44.7483 82.9392 44.7483ZM82.9392 30.0939C79.4758 30.0939 76.6589 32.9107 76.6589 36.3742C76.6589 39.8376 79.4758 42.6544 82.9392 42.6544C86.4026 42.6544 89.2195 39.8376 89.2195 36.3742C89.2195 32.9107 86.4026 30.0939 82.9392 30.0939Z" fill="white"/>
<path d="M43.5352 116C41.0335 116 39 113.964 39 111.462C39 110.344 39.4105 109.278 40.1589 108.443C40.1871 108.403 40.218 108.362 40.2542 108.326L55.0173 92.5154L59.8502 75.9858C59.8757 75.8986 59.9119 75.8154 59.9589 75.739L65.3833 53.5152H59.5471L55.696 66.3011C55.6745 66.3722 55.645 66.4406 55.6101 66.505C54.9395 68.2582 53.2654 69.4225 51.3889 69.4225C48.8886 69.4225 46.8537 67.3876 46.8537 64.8873C46.8537 64.5238 46.906 64.1522 47.012 63.7565C47.0173 63.6881 47.0308 63.6197 47.0522 63.5526L51.6746 48.3053C51.7041 48.1712 51.747 48.0451 51.7899 47.9177L51.8168 47.8399C52.4579 45.9579 54.1776 44.7212 56.1091 44.7212H77.0908C77.1954 44.7212 77.2974 44.7373 77.3926 44.7655C78.8252 44.9278 80.0995 45.7661 80.8117 47.0163C80.8855 47.0914 80.9486 47.1786 80.9955 47.2778L88.3422 62.6781L97.6083 57.1127C97.6794 57.0698 97.7519 57.0349 97.831 57.0121C98.4775 56.6781 99.1643 56.5091 99.8739 56.5091C102.373 56.5091 104.409 58.5453 104.409 61.0456C104.409 62.5721 103.653 63.9711 102.373 64.8175C102.331 64.8524 102.287 64.8846 102.239 64.9128L89.0638 72.8282C88.2671 73.4197 87.3375 73.7336 86.365 73.7336C84.4026 73.7336 82.687 72.4821 82.0713 70.6109L79.9519 66.167L77.8379 74.8268L91.2181 85.3834C91.2811 85.4317 91.3361 85.488 91.3857 85.5497C92.2764 86.4068 92.7848 87.5832 92.7848 88.8065C92.7848 90.2941 92.0618 91.6704 90.8411 92.5208C90.8022 92.5584 90.7566 92.5932 90.7124 92.6214L70.8494 105.744C70.1036 106.299 69.1727 106.611 68.2042 106.611C65.7039 106.611 63.6691 104.574 63.6691 102.073C63.6691 100.632 64.3518 99.2826 65.5054 98.4282C65.555 98.3785 65.6114 98.3316 65.6717 98.2914L80.2537 88.655L69.0023 80.541L63.5001 96.5892C63.4531 96.7287 63.3753 96.8561 63.2747 96.9634L46.843 114.561C46.8161 114.589 46.788 114.616 46.7585 114.641C45.8973 115.517 44.7571 116 43.5352 116ZM41.8813 109.65C41.8504 109.693 41.8169 109.735 41.7793 109.772C41.3367 110.234 41.0925 110.833 41.0925 111.462C41.0925 112.809 42.1884 113.905 43.5352 113.905C44.2099 113.905 44.8403 113.629 45.3111 113.128C45.3339 113.103 45.3567 113.081 45.3822 113.058L61.594 95.6985L67.4745 78.529C67.5818 78.2165 67.8313 77.971 68.1479 77.8717C68.4631 77.7711 68.8078 77.8261 69.0775 78.0193L82.7044 87.8448C82.9821 88.0447 83.1444 88.3719 83.1363 88.7153C83.131 89.0587 82.9552 89.3766 82.6669 89.5671L66.9715 99.9359C66.9313 99.9748 66.8857 100.012 66.836 100.045C66.16 100.501 65.7562 101.258 65.7562 102.071C65.7562 103.418 66.8521 104.514 68.1989 104.514C68.7153 104.514 69.2143 104.345 69.6435 104.028L89.4233 90.9581C89.4622 90.9219 89.5092 90.887 89.5574 90.8562C90.2617 90.4028 90.6842 89.6355 90.6842 88.8052C90.6842 88.1117 90.3931 87.4692 89.8619 86.993C89.8378 86.9729 89.8177 86.9528 89.7989 86.9313L76.0083 76.0528C75.6864 75.7993 75.5415 75.3808 75.6421 74.9824L78.6132 62.8135C78.7179 62.3843 79.0827 62.0664 79.5227 62.0208C79.9627 61.9738 80.3852 62.2126 80.5757 62.611L83.9894 69.7726C84.0136 69.8182 84.0283 69.8651 84.0444 69.9134C84.3637 70.9463 85.2973 71.6384 86.3637 71.6384C86.8908 71.6384 87.4005 71.4613 87.8392 71.126C87.87 71.1018 87.9022 71.0804 87.9357 71.0589L101.045 63.1851C101.076 63.1583 101.111 63.1355 101.144 63.114C101.875 62.662 102.312 61.888 102.312 61.0429C102.312 59.6962 101.218 58.6003 99.8712 58.6003C99.4594 58.6003 99.057 58.7116 98.6707 58.9316C98.6211 58.9611 98.5687 58.9853 98.5138 59.0054L88.4267 65.0657C88.1732 65.2159 87.8687 65.2548 87.5856 65.1703C87.3026 65.0858 87.0692 64.8846 86.9431 64.619L79.2195 48.4274C79.1592 48.3603 79.1069 48.2852 79.068 48.2007C78.6857 47.4106 77.9023 46.8875 77.0251 46.8325C76.9754 46.8298 76.9258 46.8231 76.8788 46.8137H56.1051C55.0696 46.8137 54.1467 47.4804 53.8073 48.4717L53.7684 48.591C53.7483 48.6514 53.7255 48.7104 53.7121 48.7735C53.7054 48.8057 53.6974 48.8378 53.688 48.87L49.1085 63.9738C49.1018 64.0396 49.0884 64.1066 49.0683 64.171C48.9838 64.4446 48.9435 64.6713 48.9435 64.886C48.9435 66.2327 50.0394 67.3272 51.3862 67.3272C52.4257 67.3272 53.3499 66.6566 53.6866 65.6586C53.7014 65.617 53.7175 65.5754 53.7363 65.5365L57.763 52.1631C57.8958 51.7218 58.3036 51.4186 58.765 51.4186H66.7126C67.0346 51.4186 67.3377 51.5648 67.5362 51.8184C67.7348 52.0719 67.8058 52.4019 67.7307 52.7131L62.0916 75.8248C62.1292 75.9267 62.1506 76.0354 62.1547 76.1467C62.1694 76.5035 62.0018 76.8348 61.7227 77.0361L56.9555 93.339C56.9099 93.496 56.8281 93.6408 56.7154 93.7602L41.8813 109.65Z" fill="white"/>
<defs>
<linearGradient id="paint0_linear" x1="92.5" y1="141" x2="41.5" y2="136" gradientUnits="userSpaceOnUse">
<stop stop-color="#7D38D6"/>
<stop offset="1" stop-color="#FD58FF"/>
</linearGradient>
</defs>
</svg>
