<svg width="210" height="150" viewBox="0 0 210 150" fill="none" xmlns="http://www.w3.org/2000/svg">
<path d="M201.28 42.1674C201.28 42.1673 201.28 42.1729 201.278 42.1842C201.279 42.1732 201.28 42.1675 201.28 42.1674ZM200.476 42.26C200.776 42.3607 200.992 42.4533 201.144 42.5297C201.068 42.6818 200.951 42.8851 200.771 43.1456C200.059 44.1764 198.726 45.5431 196.623 47.2108C192.451 50.5192 185.932 54.4837 177.444 58.8391C160.518 67.5246 136.324 77.481 108.889 86.6124C81.4539 95.7438 56.1188 102.273 37.3635 105.463C27.9585 107.063 20.364 107.796 15.0417 107.648C12.3587 107.573 10.4723 107.278 9.28472 106.88C8.98456 106.779 8.76911 106.686 8.6173 106.61C8.69307 106.458 8.81003 106.255 8.98994 105.994C9.70176 104.963 11.0351 103.596 13.1381 101.929C17.3099 98.6204 23.8289 94.6559 32.3167 90.3005C49.2431 81.615 73.4374 71.6586 100.872 62.5272C128.307 53.3958 153.642 46.867 172.398 43.6762C181.802 42.0762 189.397 41.3432 194.719 41.4915C197.402 41.5663 199.289 41.8614 200.476 42.26ZM8.29113 106.402C8.29149 106.401 8.29578 106.405 8.30295 106.414C8.29437 106.406 8.29078 106.402 8.29113 106.402ZM8.48106 106.972C8.48069 106.972 8.48105 106.967 8.48323 106.955C8.48251 106.966 8.48142 106.972 8.48106 106.972ZM201.458 42.7259C201.467 42.7338 201.47 42.7379 201.47 42.7381C201.47 42.7382 201.465 42.7343 201.458 42.7259Z" stroke="#F8F8F8" stroke-opacity="0.5" stroke-width="7"/>
<path d="M112.511 58.7698C126.148 54.504 139.438 50.8285 151.548 47.9714C163.668 45.1119 174.295 43.1457 182.78 42.1756" stroke="#F8F8F8" stroke-width="7" stroke-linecap="round" stroke-linejoin="round"/>
<path d="M179.86 70.8002C179.346 60.9095 176.854 51.2222 172.533 42.3106C166.337 29.6657 156.731 19.0037 144.798 11.5277C132.866 4.05158 119.081 0.0588773 105 0C90.1261 0.00319365 75.5889 4.4278 63.2353 12.7117C50.8817 20.9955 41.2694 32.7647 35.6198 46.5238C34.1832 49.9726 33.0281 53.5319 32.1657 57.167C30.7179 63.0005 29.9906 68.9895 30.0001 74.9999C30.0001 76.4065 30.035 77.7782 30.1383 79.1448C31.1695 98.2951 39.5091 116.32 53.4377 129.503C67.3662 142.686 85.822 150.023 105 150C121.399 149.993 137.343 144.614 150.396 134.688C163.449 124.761 172.891 110.832 177.278 95.0318C178.182 91.7899 178.858 88.4887 179.301 85.1524C179.764 81.788 179.998 78.396 180 74.9999C180 73.6 179.965 72.2018 179.86 70.8002Z" fill="#CF7734" fill-opacity="0.5"/>
<path d="M168.86 70.0085C168.626 70.0087 168.395 69.9608 168.181 69.8677C167.966 69.7746 167.774 69.6384 167.614 69.4675C166.881 68.6861 166.086 67.9647 165.237 67.3102C165.059 67.1739 164.909 67.0036 164.796 66.8092C164.684 66.6148 164.611 66.4 164.582 66.1773C164.553 65.9546 164.568 65.7283 164.626 65.5114C164.685 65.2946 164.786 65.0914 164.923 64.9137C165.06 64.736 165.232 64.5872 165.427 64.4758C165.622 64.3645 165.837 64.2928 166.06 64.2649C166.283 64.237 166.509 64.2535 166.725 64.3133C166.942 64.3732 167.145 64.4752 167.321 64.6136C168.316 65.3798 169.246 66.2248 170.105 67.1405C170.331 67.3832 170.482 67.6869 170.539 68.0142C170.595 68.3415 170.555 68.6781 170.423 68.9828C170.29 69.2875 170.072 69.5468 169.794 69.7291C169.517 69.9113 169.192 70.0084 168.86 70.0085V70.0085Z" fill="#761C0F" fill-opacity="0.5"/>
<path d="M160.048 64.1651C159.83 64.165 159.614 64.1232 159.412 64.0419C155.101 62.4281 150.57 61.4822 145.973 61.2371C145.75 61.2209 145.532 61.1608 145.332 61.0603C145.132 60.9598 144.954 60.8209 144.808 60.6514C144.662 60.482 144.55 60.2853 144.48 60.0728C144.41 59.8602 144.382 59.6359 144.399 59.4127C144.412 59.1882 144.469 58.9687 144.569 58.767C144.668 58.5654 144.807 58.3857 144.977 58.2389C145.148 58.092 145.346 57.9808 145.56 57.9119C145.774 57.843 145.999 57.8179 146.223 57.838C151.172 58.0959 156.05 59.1219 160.683 60.8792C161.051 61.027 161.355 61.2979 161.544 61.6455C161.734 61.9932 161.796 62.3958 161.721 62.7844C161.646 63.173 161.437 63.5234 161.132 63.7753C160.827 64.0272 160.443 64.1651 160.048 64.1651Z" fill="#761C0F" fill-opacity="0.5"/>
<path d="M93.5348 44.0544C84.9276 44.2075 76.3977 42.408 68.5859 38.7909C68.18 38.5938 67.869 38.2437 67.7209 37.8175C67.5728 37.3913 67.5998 36.9237 67.7959 36.5174C67.992 36.111 68.3413 35.799 68.7671 35.6498C69.1929 35.5006 69.6605 35.5264 70.0674 35.7214C77.8298 39.2869 86.3244 40.9695 94.8598 40.6322C95.0843 40.6256 95.3078 40.6639 95.5173 40.7449C95.7267 40.8258 95.9179 40.9478 96.0796 41.1036C96.2414 41.2594 96.3703 41.4459 96.459 41.6523C96.5477 41.8586 96.5942 42.0805 96.596 42.3051C96.6038 42.757 96.4321 43.1935 96.1185 43.519C95.8049 43.8444 95.375 44.0323 94.9231 44.0412C94.4587 44.0494 93.9942 44.0544 93.5348 44.0544Z" fill="#BD482C" fill-opacity="0.5"/>
<path d="M164.843 109.671C164.69 109.671 164.537 109.65 164.389 109.609C161.389 108.972 158.325 108.697 155.26 108.79H155.252C154.8 108.792 154.366 108.613 154.045 108.294C153.725 107.975 153.544 107.542 153.543 107.09C153.542 106.638 153.72 106.204 154.039 105.884C154.358 105.563 154.791 105.383 155.243 105.381C158.62 105.278 161.996 105.595 165.294 106.324C165.691 106.433 166.035 106.683 166.263 107.027C166.49 107.371 166.584 107.786 166.529 108.194C166.474 108.603 166.273 108.977 165.963 109.249C165.653 109.52 165.255 109.67 164.843 109.671Z" fill="#BD482C" fill-opacity="0.5"/>
<path d="M119.972 114.79C119.662 114.79 119.374 114.785 119.109 114.774C110.436 114.156 102.312 110.299 96.3526 103.967C96.0563 103.627 95.9069 103.184 95.9369 102.734C95.9669 102.284 96.174 101.864 96.5128 101.566C96.8516 101.269 97.2946 101.117 97.7447 101.146C98.1948 101.174 98.6154 101.379 98.9144 101.717C104.287 107.315 111.525 110.749 119.259 111.368C123.74 111.262 128.213 110.922 132.659 110.349C136.724 109.928 141.192 109.466 145.555 109.136C146.002 109.108 146.442 109.258 146.779 109.552C147.117 109.847 147.325 110.262 147.359 110.709C147.392 111.156 147.249 111.598 146.959 111.939C146.67 112.281 146.257 112.495 145.811 112.535C141.48 112.861 137.045 113.322 133.01 113.74C127.605 114.299 122.866 114.79 119.972 114.79Z" fill="#BD482C" fill-opacity="0.5"/>
<path d="M82.3236 121.564C82.5329 120.168 85.3934 119.331 87.0679 118.843C88.521 118.381 90.0446 118.18 91.5679 118.25C96.3819 118.599 101.405 122.715 100.812 124.948C100.184 127.25 93.2772 127.913 88.0793 126.099C85.6027 125.227 82.0794 123.273 82.3236 121.564Z" fill="#BD482C" fill-opacity="0.5"/>
<path d="M78.9392 105.343C79.2881 105.866 82.2184 110.192 80.7533 112.389C79.8462 113.785 77.6137 113.54 68.4041 112.354C54.555 110.575 52.4271 109.354 50.927 108.238C47.681 106.345 45.2746 103.29 44.1944 99.6914C43.8755 98.6366 43.7699 97.5288 43.8837 96.4328C43.9975 95.3368 44.3284 94.2743 44.8571 93.3075C47.8571 88.8423 56.4737 90.5168 57.0318 90.6563C62.0203 91.668 61.2529 93.761 71.474 99.5867C74.4003 100.858 76.9654 102.836 78.9392 105.343Z" fill="#BD482C" fill-opacity="0.5"/>
<path d="M68.4044 112.354C77.614 113.541 79.8465 113.785 80.7536 112.389C82.2187 110.192 79.2884 105.866 78.9396 105.343C76.9657 102.836 74.4006 100.858 71.4743 99.5868C61.2532 93.7611 62.0206 91.668 57.0321 90.6564C56.474 90.5168 47.8575 88.8424 44.8575 93.3076C44.3287 94.2744 43.9978 95.3368 43.884 96.4329C43.7703 97.5289 43.8758 98.6366 44.1947 99.6915C45.2749 103.29 47.6813 106.345 50.9273 108.238C52.4274 109.354 54.5553 110.575 68.4044 112.354ZM91.5677 118.25C90.0445 118.18 88.5209 118.381 87.0677 118.843C85.3933 119.331 82.5328 120.169 82.3235 121.564C82.0793 123.273 85.6026 125.227 88.0794 126.099C93.2772 127.913 100.184 127.25 100.812 124.948C101.405 122.715 96.3816 118.599 91.5677 118.25ZM37.4969 107.61C33.1569 98.6749 30.654 88.9598 30.1362 79.0399C39.1606 78.8108 48.1559 80.1565 56.7182 83.0166C65.3642 86.0939 73.4568 90.5466 80.6838 96.203C91.2886 104.471 89.6491 107.122 98.3004 112.668C106.59 118.271 116.415 121.16 126.417 120.936C134.266 120.483 135.627 118.389 146.127 116.296C153.26 114.908 160.582 114.79 167.755 115.947C162.334 124.216 155.341 131.34 147.174 136.913L147.139 136.878C145.778 136.878 144.383 136.878 142.987 136.808C140.859 136.773 138.976 136.669 138.766 136.669C129.069 136.18 117.731 136.215 117.731 136.215C108.744 136.318 99.7763 135.369 91.0096 133.39C83.5096 131.611 76.8116 128.297 63.73 121.738C57.102 118.424 48.1018 113.715 37.5318 107.61L37.4969 107.61Z" fill="#761C0F" fill-opacity="0.5"/>
<path d="M179.302 85.0393C178.859 88.3734 178.183 91.6723 177.278 94.9116C174.164 93.5361 170.929 92.4501 167.615 91.6673C152.755 88.0393 144.836 92.2254 130.359 91.0045C122.301 90.3417 116.649 88.179 105.277 83.9927C84.73 76.3181 85.044 71.6785 68.2995 66.969C59.7179 64.5271 56.2643 64.8411 43.5315 60.8992C39.171 59.5736 35.3337 58.2479 32.1592 57.0619C33.0201 53.4276 34.175 49.8693 35.6126 46.4221C50.089 46.5152 64.3937 49.566 77.6484 55.3875C86.6834 59.469 92.2998 63.7249 105.172 67.1435C112.428 69.0273 113.335 68.3994 127.952 71.3297C132.347 72.2018 141.801 74.1553 153.627 77.2949C160.639 79.1787 169.36 81.6904 179.302 85.0393Z" fill="#BD482C" fill-opacity="0.5"/>
<path d="M172.535 42.2009C176.848 51.1196 179.338 60.8088 179.861 70.7015C179.198 70.3876 173.861 64.7363 170.791 61.6316C163.221 53.9221 154.884 55.9803 142.43 51.8988C127.116 46.8755 129.209 40.3521 115.185 36.8636C105.139 34.352 105.208 38.0148 89.6149 35.9915C76.1844 34.2822 72.7309 31.1426 61.5678 31.003C55.0184 30.9399 48.4989 31.8932 42.2417 33.8287C47.6747 25.5479 54.6792 18.4131 62.8584 12.8283L62.8933 12.8631C74.5403 9.80925 86.6552 8.95742 98.615 10.3515C108.306 11.5916 117.772 14.199 126.732 18.0958C134.194 21.4269 141.461 25.1772 148.5 29.3288C158.895 35.0149 167.302 39.4801 172.465 42.236L172.535 42.2009Z" fill="#761C0F" fill-opacity="0.5"/>
<path d="M152.608 50.4674C152.558 50.4674 152.51 50.4658 152.458 50.4608C147.598 50.0124 142.902 48.4695 138.723 45.948C138.531 45.8339 138.363 45.6829 138.228 45.5038C138.094 45.3247 137.996 45.1209 137.941 44.904C137.885 44.6871 137.873 44.4615 137.905 44.2399C137.937 44.0183 138.012 43.8051 138.126 43.6125C138.24 43.4199 138.391 43.2517 138.57 43.1175C138.749 42.9832 138.953 42.8856 139.17 42.8301C139.387 42.7746 139.612 42.7623 139.834 42.7941C140.055 42.8258 140.269 42.9008 140.461 43.015C144.201 45.2759 148.403 46.6605 152.754 47.065C153.191 47.1041 153.596 47.31 153.885 47.6398C154.173 47.9696 154.324 48.3981 154.305 48.8361C154.286 49.2741 154.099 49.6879 153.783 49.9917C153.467 50.2955 153.046 50.4658 152.608 50.4672L152.608 50.4674Z" fill="#BD482C" fill-opacity="0.5"/>
<path opacity="0.5" d="M147.545 13.1553C157.507 27.5891 162.093 45.0586 160.505 62.5243C158.917 79.9899 151.257 96.3461 138.856 108.747C126.454 121.148 110.098 128.809 92.6326 130.396C75.1669 131.984 57.6974 127.398 43.2637 117.436C49.5015 126.494 57.6558 134.07 67.1483 139.624C76.6407 145.179 87.239 148.578 98.1917 149.579C109.144 150.581 120.183 149.16 130.526 145.419C140.868 141.677 150.261 135.706 158.038 127.929C165.815 120.152 171.786 110.76 175.527 100.417C179.269 90.0751 180.689 79.0362 179.688 68.0835C178.687 57.1308 175.288 46.5325 169.733 37.04C164.179 27.5475 156.604 19.3932 147.545 13.1553Z" fill="#343458" fill-opacity="0.5"/>
<path opacity="0.24" d="M64.8814 64.4227C77.4044 64.4227 87.5563 54.2709 87.5563 41.7479C87.5563 29.2249 77.4044 19.073 64.8814 19.073C52.3584 19.073 42.2065 29.2249 42.2065 41.7479C42.2065 54.2709 52.3584 64.4227 64.8814 64.4227Z" fill="#BC6E5B" fill-opacity="0.5"/>
<path d="M176.549 43.0085C183.389 41.9755 189.014 41.4787 193.317 41.4816C197.808 41.4848 200.269 42.0432 201.27 42.611C201.657 42.8303 201.417 42.8176 201.309 42.4082C201.213 42.0481 201.394 42.0174 201.114 42.5602C200.487 43.7749 198.622 45.7992 194.837 48.5535C187.458 53.9231 174.822 60.6341 158.381 67.8077C141.995 74.9573 122.749 82.1664 103.085 88.5151" stroke="white" stroke-width="7" stroke-linecap="round" stroke-linejoin="round"/>
<path d="M130.259 79.0966C109.527 86.793 87.4987 93.7347 67.5003 98.8765C47.4515 104.031 30.7064 107.051 19.7079 107.576C14.0941 107.844 10.6394 107.421 8.94284 106.741C8.12681 106.414 8.23262 106.233 8.3874 106.555C8.59578 106.988 8.36677 107.186 8.57897 106.719C8.81613 106.196 9.40334 105.342 10.5957 104.166C11.7572 103.02 13.3476 101.709 15.391 100.25C19.4775 97.3315 25.1569 93.9745 32.3167 90.3005" stroke="#F8F8F8" stroke-opacity="0.4" stroke-width="7"/>
</svg>
